<?xml version="1.0" encoding="utf-8"?>
<!-- Generator: Adobe Illustrator 26.5.0, SVG Export Plug-In . SVG Version: 6.00 Build 0)  -->
<svg version="1.1" id="Layer_1" xmlns="http://www.w3.org/2000/svg" xmlns:xlink="http://www.w3.org/1999/xlink" x="0px" y="0px"
	 viewBox="0 0 360 360" style="enable-background:new 0 0 360 360;" xml:space="preserve">
<style type="text/css">
	.st0{fill:#FFFFFF;}
	.st1{fill:#00AEEF;stroke:#00AEEF;stroke-width:1.8942;stroke-miterlimit:10;}
	.st2{fill:#00AEEF;stroke:#00AEEF;stroke-width:0.9471;stroke-miterlimit:10;}
	.st3{stroke:#000000;stroke-width:1.8942;stroke-linecap:round;stroke-linejoin:round;stroke-miterlimit:10;}
</style>
<path class="st0" d="M297.3,350.5H62.7c-29.4,0-53.2-23.8-53.2-53.2V62.7c0-29.4,23.8-53.2,53.2-53.2h234.5
	c29.4,0,53.2,23.8,53.2,53.2v234.5C350.5,326.7,326.7,350.5,297.3,350.5z"/>
<g>
	<g>
		<path class="st1" d="M241.6,306.5H138.9V132.7c0-1,0.8-1.8,1.8-1.8c1,0,1.8,0.8,1.8,1.8v170.1h99.1c1,0,1.8,0.8,1.8,1.8
			S242.7,306.5,241.6,306.5z"/>
	</g>
	<circle cx="140.7" cy="124.4" r="3.7"/>
	<circle class="st2" cx="85.3" cy="146.8" r="3.8"/>
	<circle class="st2" cx="259.9" cy="304.7" r="4"/>
	<path class="st1" d="M60.2,101.5v18c0,4.7,3.8,8.5,8.5,8.5h8.9h8.9c4.7,0,8.5-3.8,8.5-8.5v-9v-9c0-4.7-3.8-8.5-8.5-8.5H68.7
		C64,93,60.2,96.8,60.2,101.5z"/>
	<path class="st1" d="M23.3,69.4v12.8c0,3.3,2.7,6.1,6.1,6.1h6.4h6.4c3.3,0,6.1-2.7,6.1-6.1v-6.4v-6.4c0-3.3-2.7-6.1-6.1-6.1H29.4
		C26,63.4,23.3,66.1,23.3,69.4z"/>
	<path class="st1" d="M66.1,44.3v8.5c0,2.2,1.8,4,4,4h4.2h4.2c2.2,0,4-1.8,4-4v-4.2v-4.2c0-2.2-1.8-4-4-4h-8.4
		C67.9,40.3,66.1,42.1,66.1,44.3z"/>
	<circle class="st3" cx="53.6" cy="90" r="3.2"/>
	<circle class="st3" cx="56.2" cy="59.3" r="5.9"/>
	<g>
		<path class="st3" d="M257.5,319.7H75.8c-2.4,0-4.3-1.9-4.3-4.3V157.2c0-2.4,1.9-4.3,4.3-4.3h7c2.4,0,4.3,1.9,4.3,4.3v145
			c0,0.4,0.3,0.6,0.6,0.6H119c0.4,0,0.6-0.3,0.6-0.6V118.7c0-0.4-0.3-0.6-0.6-0.6h-9.5c-0.4,0-0.6,0.3-0.6,0.6v5.2
			c0,8.8-7.2,16-16,16h-7.6c-1,0-1.8-0.8-1.8-1.8c0-1,0.8-1.8,1.8-1.8h7.6c6.8,0,12.3-5.5,12.3-12.3v-5.2c0-2.4,1.9-4.3,4.3-4.3h9.5
			c2.4,0,4.3,1.9,4.3,4.3v183.5c0,2.4-1.9,4.3-4.3,4.3H87.7c-2.4,0-4.3-1.9-4.3-4.3v-145c0-0.4-0.3-0.6-0.6-0.6h-7
			c-0.4,0-0.6,0.3-0.6,0.6v158.2c0,0.4,0.3,0.6,0.6,0.6h181.6c0.4,0,0.6-0.3,0.6-0.6v-1.9c0-1,0.8-1.8,1.8-1.8s1.8,0.8,1.8,1.8v1.9
			C261.7,317.8,259.8,319.7,257.5,319.7z"/>
	</g>
	<path class="st1" d="M295.9,96.3c-2,0-3.7,1.3-4.4,3.1h-60.1l-9.7,15.3h-81.1c-0.9,0-1.6,0.7-1.6,1.6s0.7,1.6,1.6,1.6h82.8
		l9.7-15.3h58.3c0.7,1.8,2.4,3.1,4.4,3.1c2.6,0,4.7-2.1,4.7-4.7C300.6,98.4,298.5,96.3,295.9,96.3z"/>
	<path class="st1" d="M314.1,113.1c-2,0-3.7,1.3-4.4,3h-59.2l-9.7,15.3h-54.7c-0.9,0-1.6,0.7-1.6,1.6c0,0.9,0.7,1.6,1.6,1.6h56.5
		l9.7-15.3h57.4c0.7,1.8,2.4,3.1,4.4,3.1c2.6,0,4.7-2.1,4.7-4.7C318.7,115.2,316.7,113.1,314.1,113.1z"/>
	<path class="st3" d="M331.3,131.6c-2.4,0-4.4,1.5-5.1,3.7h-60l-9.7,15.3h-77.1c-2.4,0-4.3,1.9-4.3,4.3V266c0,2.4,1.9,4.3,4.3,4.3
		h78.1c0.4,0,0.6,0.3,0.6,0.6v24.9c0,1,0.8,1.8,1.8,1.8s1.8-0.8,1.8-1.8V271c0-2.4-1.9-4.3-4.3-4.3h-78.1c-0.4,0-0.6-0.3-0.6-0.6
		V154.8c0-0.4,0.3-0.6,0.6-0.6h79.1l9.7-15.3h58c0.8,2.1,2.8,3.6,5.1,3.6c3,0,5.4-2.4,5.4-5.4S334.3,131.6,331.3,131.6z"/>
</g>
</svg>
